<svg width="17" height="17" viewBox="0 0 17 17" fill="none" xmlns="http://www.w3.org/2000/svg">
<path d="M8.03906 0.223633C3.6276 0.223633 0.0390625 3.81217 0.0390625 8.22363C0.0390625 12.6351 3.6276 16.2236 8.03906 16.2236C12.4505 16.2236 16.0391 12.6351 16.0391 8.22363C16.0391 3.81217 12.4505 0.223633 8.03906 0.223633ZM8.03906 1.55697C11.7292 1.55697 14.7057 4.53353 14.7057 8.22363C14.7057 11.9137 11.7292 14.8903 8.03906 14.8903C4.34896 14.8903 1.3724 11.9137 1.3724 8.22363C1.3724 4.53353 4.34896 1.55697 8.03906 1.55697ZM5.03906 5.55697C4.48698 5.55697 4.03906 6.00488 4.03906 6.55697C4.03906 7.10905 4.48698 7.55697 5.03906 7.55697C5.59115 7.55697 6.03906 7.10905 6.03906 6.55697C6.03906 6.00488 5.59115 5.55697 5.03906 5.55697ZM9.3724 6.22363V7.55697H12.7057V6.22363H9.3724ZM11.3516 8.91113C11.3516 10.0335 10.901 10.8122 10.2474 11.3695C9.59375 11.9268 8.72917 12.2236 8.03906 12.2236C6.625 12.2236 5.66406 11.6507 4.91406 10.9111L3.97656 11.8695C4.90625 12.7835 6.2526 13.557 8.03906 13.557C9.07552 13.557 10.2135 13.1663 11.1224 12.3903C12.0312 11.6143 12.6849 10.4163 12.6849 8.91113H11.3516Z" fill="white"/>
</svg>
