<svg width="84" height="68" viewBox="0 0 84 68" fill="none" xmlns="http://www.w3.org/2000/svg">
<path d="M35.4755 59.1263C25.7829 58.5724 15.6762 55.6503 8.33212 49.1082C0.22287 41.8845 -2.1163 32.7517 6.23375 24.4016C14.2491 16.3863 26.6715 12.4083 37.4385 10.1192C48.9001 7.68249 61.571 6.5762 73.2462 8.2239C77.364 8.80505 81.618 10.0194 82.5535 14.5529C83.5358 19.3133 82.768 24.7845 81.5043 29.4107C77.0254 45.8066 60.1376 55.544 44.3428 58.5847C34.41 60.4969 5.63238 62.696 3.72924 47.2806C2.22415 35.0893 12.3678 22.1632 22.953 17.6327C34.5534 12.6678 55.8203 10.2091 65.5296 20.408C72.2137 27.4291 72.5122 38.616 68.1018 46.8068C60.4456 61.0254 41.9855 66.4033 26.879 66.5044C21.3128 66.5416 14.5558 66.0475 10.5997 61.5969C6.84467 57.3725 5.24852 51.4863 5.42148 45.9268C5.97001 28.2953 16.7455 15.7623 32.3618 8.69773C43.802 3.52244 64.5532 -4.16383 75.4122 6.39629C81.6341 12.4469 82.1113 23.877 78.9321 31.5767C73.7015 44.2446 57.7816 51.5445 45.4936 54.9295C40.4517 56.3184 32.589 58.5968 27.5559 56.0802" stroke="#D96EE9" stroke-linecap="round"/>
</svg>
